<?xml version="1.0" standalone="no"?>
<!DOCTYPE svg PUBLIC "-//W3C//DTD SVG 20010904//EN"
 "http://www.w3.org/TR/2001/REC-SVG-20010904/DTD/svg10.dtd">
<svg version="1.0" xmlns="http://www.w3.org/2000/svg"
 width="900.000000pt" height="900.000000pt" viewBox="0 0 900.000000 900.000000"
 preserveAspectRatio="xMidYMid meet">
<metadata>
Created by potrace 1.11, written by Peter Selinger 2001-2013
</metadata>
<g transform="translate(0.000000,900.000000) scale(0.100000,-0.100000)"
fill="#000000" stroke="none">
<path d="M4561 6758 c-1183 -3053 -1506 -3879 -1550 -3973 -106 -220 -248
-369 -402 -420 l-49 -17 0 -64 0 -64 103 7 c131 10 710 10 935 1 l172 -8 0 64
0 63 -81 7 c-380 32 -519 191 -454 521 34 175 70 276 335 958 l41 107 774 0
773 0 20 -57 c11 -32 106 -290 212 -573 210 -562 230 -625 231 -717 2 -150
-80 -206 -343 -235 l-108 -12 0 -63 0 -64 118 8 c150 10 1168 10 1290 0 l92
-8 0 66 c0 56 -2 65 -18 65 -41 0 -123 32 -181 71 -72 48 -137 129 -191 237
-37 73 -462 1162 -1266 3244 l-339 877 -53 1 c-45 0 -54 -3 -61 -22z m191
-1745 l355 -948 -720 -3 c-396 -1 -721 -1 -723 1 -5 5 719 1897 726 1897 3 0
166 -426 362 -947z"/>
</g>
</svg>
